<?xml version="1.0" encoding="utf-8"?>
<!-- Generator: Adobe Illustrator 22.0.1, SVG Export Plug-In . SVG Version: 6.00 Build 0)  -->
<svg version="1.1" id="Layer_1" xmlns="http://www.w3.org/2000/svg" xmlns:xlink="http://www.w3.org/1999/xlink" x="0px" y="0px"
	 viewBox="0 0 800 230" style="enable-background:new 0 0 800 230;" xml:space="preserve">
<style type="text/css">
	.st0{fill:#D5D6D5;}
</style>
<g>
	<path class="st0" d="M363.7,57.5c0,0-56.5-40.7-193.2,18.1c0,0-95.1,22.6-163.5-11.3c0,0,59.4,52,228.9,40.7
		c0,0-59.5-4.5-80.2-13.6c0,0,32.7-6.8,77.3-18.1c0,0,62.4-2.2,80.2,24.8c0,0,0,29.4,41.6,33.9c0,0-38.7-24.8,14.9-31.6
		C369.6,100.5,402.3,73.3,363.7,57.5z"/>
	<path class="st0" d="M436.3,57.5c0,0,56.5-40.7,193.2,18.1c0,0,95.1,22.6,163.5-11.3c0,0-59.5,52-228.9,40.7
		c0,0,59.4-4.5,80.3-13.6c0,0-32.7-6.8-77.3-18.1c0,0-62.4-2.2-80.2,24.8c0,0,0,29.4-41.6,33.9c0,0,38.6-24.8-14.9-31.6
		C430.4,100.5,397.7,73.3,436.3,57.5z"/>
	<g>
		<g>
			<path class="st0" d="M402.1,96.6c0,0-14.7,23.2-42.6,23.2c0,0,3,9.6,18.9,9.6c0,0-6-1.3-6.3-5c0,0,5,2.6,12.9,2
				c0,0-3.5,29,5.6,38.1c0,0-1,15.9,7.3,24.2c0,0-7.8,5.5-17.1-6.3c0,0-7.2,1.6-16.3-22.7c0,0,3.9,24.2,20.6,37.4
				c16.8,13.1,15.7,17.8,16.8,29.1"/>
			<path class="st0" d="M401.7,96.9c0,0,14.7,23.2,42.6,23.2c0,0-3,9.6-18.9,9.6c0,0,5.9-1.3,6.3-5c0,0-5,2.6-12.9,2
				c0,0,3.5,29-5.6,38.1c0,0,1,15.9-7.3,24.2c0,0,7.8,5.6,17.1-6.3c0,0,7.2,1.5,16.2-22.7c0,0-3.8,24.3-20.6,37.4
				c-16.8,13.2-15.7,17.8-16.8,29.1"/>
		</g>
	</g>
	<g>
		<g>
			<path class="st0" d="M401.5,51.5c0,0-4.6-10.3-9.6-10.3c0,0-8-3-19.4,5.5c0,0,2.3-5.5,8.2-7.3c0,0-5,0.4-7.8,2.7
				c0,0,2.1-5,8.9-7.1c0,0,2-8.8,12.7-10.8c0,0,6-8.3,7-16.2"/>
			<path class="st0" d="M401.5,51.7c0,0,4.6-10.3,9.6-10.3c0,0,8-3,19.4,5.5c0,0-2.2-5.5-8.2-7.3c0,0,5,0.5,7.8,2.7
				c0,0-2.1-5-8.9-7.1c0,0-1.9-8.8-12.6-10.8c0,0-6-8.3-7-16.2"/>
		</g>
	</g>
</g>
</svg>
